<svg width="46" height="42" viewBox="0 0 46 42" fill="none" xmlns="http://www.w3.org/2000/svg">
<path d="M18.7486 41.65C22.902 40.0167 21.992 35.5134 19.892 32.6667C17.8153 29.75 14.9453 27.7434 12.052 25.8067C9.98756 24.5055 8.14432 22.8829 6.59197 21C5.93863 20.23 4.60863 18.8067 5.96197 18.5267C7.33863 18.2467 9.71863 19.6 10.932 20.1134C13.0553 21 15.1553 22.0267 17.1153 23.24L19.472 19.2734C15.832 16.87 11.1653 14.7467 6.8253 14.1167C4.35197 13.7434 1.73863 14.2567 0.898634 16.94C0.151967 19.25 1.34197 21.5834 2.6953 23.4034C5.89197 27.6734 10.862 29.7267 14.572 33.4134C15.3653 34.1834 16.322 35.0934 16.7886 36.1667C17.2786 37.1934 17.162 37.2634 16.0653 37.2634C13.172 37.2634 9.5553 35 7.19864 33.5067L4.84197 37.4734C8.41197 39.6667 14.3853 43.0967 18.7486 41.65ZM44.6253 5.25004C45.1386 4.7367 45.1386 3.8967 44.6253 3.4067L41.592 0.373369C41.3476 0.137831 41.0214 0.00622559 40.682 0.00622559C40.3425 0.00622559 40.0164 0.137831 39.772 0.373369L37.392 2.75337L42.2453 7.6067L44.6253 5.25004ZM21.6653 18.48V23.3334H26.5186L40.8686 8.98337L36.0153 4.13004L21.6653 18.48Z" fill="#2091F9"/>
</svg>
