<svg width="26" height="33" viewBox="0 0 26 33" fill="none" xmlns="http://www.w3.org/2000/svg">
<path d="M12.2485 32.256C12.5164 32.4473 12.8375 32.5502 13.1668 32.5502C13.4961 32.5502 13.8172 32.4473 14.0851 32.256C14.5665 31.9155 25.8794 23.7471 25.8335 13.5505C25.8335 6.56637 20.1509 0.883789 13.1668 0.883789C6.18272 0.883789 0.500139 6.56637 0.500139 13.5425C0.454223 23.7471 11.7671 31.9155 12.2485 32.256ZM13.1668 4.05046C18.4061 4.05046 22.6668 8.31121 22.6668 13.5584C22.7001 20.5852 15.7191 26.8948 13.1668 28.9642C10.6161 26.8932 3.63356 20.582 3.66681 13.5505C3.66681 8.31121 7.92756 4.05046 13.1668 4.05046Z" fill="#2091F9"/>
</svg>
